# xmcd
#
# Track frame offsets: 
#        150
#        15896
#        29853
#        42824
#        55359
#        69374
#        80437
#        99774
#        114426
#        126495
#        137543
#        160082
#
# Disc length: 2325 seconds
#
# Revision: 2
# Processed by: cddbd v1.5.1PL0 Copyright (c) Steve Scherf et al.
# Submitted via: ExactAudioCopy v0.95a3
#
DISCID=9309130c
DTITLE=Various Artist - Walk on By - Songs That Inspired Generations vol 1 di
DTITLE=sc 1
DYEAR=2004
DGENRE=Blues
TTITLE0=Louis Armstrong allstars feat. Billy Kyle - St Louis Blues
TTITLE1=Ella Fitzgerald - Night and day
TTITLE2=Ray Charles - Alexanders rag time band
TTITLE3=Harry Nilsson - It had to be you
TTITLE4=Bing Crosby - White Christmas
TTITLE5=Andrews Sisters - Tea for two
TTITLE6=Dinah Washington - Manhattan
TTITLE7=Nat King Cole - Stardust
TTITLE8=The Platters - Smoke gets in your eyes
TTITLE9=Aaron Neville - Danny Boy
TTITLE10=Louis Armstrong and Ella Fitzgerald - Summertime
TTITLE11=Billie Holiday - Strange fruit
EXTD=
EXTT0=
EXTT1=
EXTT2=
EXTT3=
EXTT4=
EXTT5=
EXTT6=
EXTT7=
EXTT8=
EXTT9=
EXTT10=
EXTT11=
PLAYORDER=
